<svg id="_001-cooking" data-name="001-cooking" xmlns="http://www.w3.org/2000/svg" width="43.309" height="40.94" viewBox="0 0 43.309 40.94">
  <path id="Path_1161" data-name="Path 1161" d="M69.658,223.5a.639.639,0,0,0,.892.916,2.161,2.161,0,0,0,.408-2.949c-.325-.636-.46-.9.226-1.545a.639.639,0,0,0-.876-.931,2.209,2.209,0,0,0-.488,3.058C70.132,222.659,70.261,222.912,69.658,223.5Zm0,0" transform="translate(-63.539 -200.307)" fill="#fff"/>
  <path id="Path_1162" data-name="Path 1162" d="M111.475,182.98a.639.639,0,0,0,.892.916,2.159,2.159,0,0,0,.406-2.949c-.326-.636-.461-.9.225-1.545a.639.639,0,1,0-.876-.931,2.208,2.208,0,0,0-.486,3.058C111.949,182.139,112.078,182.392,111.475,182.98Zm0,0" transform="translate(-101.818 -163.215)" fill="#fff"/>
  <path id="Path_1163" data-name="Path 1163" d="M218.305,173.414a.636.636,0,0,0,.456-.192,1.7,1.7,0,0,1,1.344,0,.639.639,0,1,0,.907-.9,2.348,2.348,0,0,0-1.584-.518h-.013a2.323,2.323,0,0,0-1.567.522.64.64,0,0,0,.457,1.087Zm0,0" transform="translate(-199.254 -157.272)" fill="#fff"/>
  <path id="Path_1164" data-name="Path 1164" d="M279.512,173.414a.635.635,0,0,0,.456-.192,1.7,1.7,0,0,1,1.345,0,.639.639,0,1,0,.907-.9,2.348,2.348,0,0,0-1.584-.518h-.013a2.323,2.323,0,0,0-1.567.522.64.64,0,0,0,.457,1.087Zm0,0" transform="translate(-255.283 -157.272)" fill="#fff"/>
  <path id="Path_1165" data-name="Path 1165" d="M262.968,52.538a.639.639,0,0,0,.639-.639V48.963a.639.639,0,0,0-1.278,0V51.9A.639.639,0,0,0,262.968,52.538Zm0,0" transform="translate(-240.139 -44.236)" fill="#fff"/>
  <path id="Path_1166" data-name="Path 1166" d="M211.658,64.012a.639.639,0,0,0-.639.639v2.933a.639.639,0,0,0,1.278,0V64.651A.639.639,0,0,0,211.658,64.012Zm0,0" transform="translate(-193.17 -58.597)" fill="#fff"/>
  <path id="Path_1167" data-name="Path 1167" d="M314.276,68.224a.639.639,0,0,0,.639-.639V64.651a.639.639,0,0,0-1.278,0v2.933A.639.639,0,0,0,314.276,68.224Zm0,0" transform="translate(-287.107 -58.597)" fill="#fff"/>
  <path id="Path_1168" data-name="Path 1168" d="M40.829,22.159a2.484,2.484,0,0,0,2.48-2.482V14.111a2.484,2.484,0,0,0-2.48-2.482H38.115a2.484,2.484,0,0,0-2.48,2.482v5.566a2.484,2.484,0,0,0,2.48,2.482h.718v8.952H38.3a2.141,2.141,0,0,0-.53.066l-.61-2.584c-.709-3-3.2-4.629-7.417-4.829h-.009a2.2,2.2,0,0,1-.885-.194l-.03-.014a2.1,2.1,0,0,1-.8-.74c.136-.1.271-.212.4-.323a7.482,7.482,0,0,0,2.865-5.637V12.741a.616.616,0,0,0,0-.186v-4.2a3.084,3.084,0,0,0,1.324-3.415,3.935,3.935,0,0,0-3.881-2.655h-1.8A3.871,3.871,0,0,0,23.609.022a5,5,0,0,0-4.694,2.267H17.192a3.992,3.992,0,0,0-3.937,2.694,3.049,3.049,0,0,0,1.3,3.375v8.829a6.952,6.952,0,0,0,2.415,4.894c.264.25.544.488.834.713a2.12,2.12,0,0,1-.819.765h0a2.184,2.184,0,0,1-.908.2h-.009a14.8,14.8,0,0,0-1.818.193h-.007c-2.782.483-4.579,1.777-5.359,3.863H2.161a2.163,2.163,0,0,0,0,4.327H3.822a9.143,9.143,0,0,0,2.89,3.705H6.091A1.891,1.891,0,0,0,4.2,37.744v1.305a1.891,1.891,0,0,0,1.889,1.89H9.835a.639.639,0,0,0,0-1.278H6.091a.611.611,0,0,1-.61-.612V37.744a.612.612,0,0,1,.61-.612H19.4a.612.612,0,0,1,.6.486.576.576,0,0,0,.01.063.556.556,0,0,1,0,.062v1.305a.612.612,0,0,1-.611.612H12.747a.639.639,0,0,0,0,1.278H19.4a1.892,1.892,0,0,0,1.889-1.89v-.86H36.165A2.146,2.146,0,0,0,38.3,40.233h1.169a3.315,3.315,0,0,0,3.31-3.312v-2.5a3.317,3.317,0,0,0-2.671-3.25V22.159Zm-4.91,6.728.714,3.028a2.134,2.134,0,0,0-.471,1.339v3.657H34.344L33.3,30.859a2.007,2.007,0,0,0-1.169-1.592V25.381a4.658,4.658,0,0,1,3.789,3.506Zm-5.068-3.745v4H29.213V25a3.969,3.969,0,0,0,.477.044c.407.019.794.054,1.161.1Zm-6,4a2.167,2.167,0,0,0-1.993-1.322H17.929V25.874a8.557,8.557,0,0,0,4.538,1.347q.2.008.414.008a8.782,8.782,0,0,0,5.054-1.41v3.326Zm-3.085,1.24A3.159,3.159,0,0,0,21.81,29.1h1.048a.885.885,0,0,1,0,1.77H21.643q.067-.24.122-.485Zm8.247-17.225v1.723a2.471,2.471,0,0,1-1.591-2.032q.8.135,1.591.31ZM17.4,12.85a2.47,2.47,0,0,1-1.564,2.017V13.158q.781-.173,1.564-.308Zm-1.564,4.338v-.959a4.839,4.839,0,0,0,1.443-.749A3.547,3.547,0,0,0,18.7,12.653c.963-.127,1.925-.211,2.879-.25a.639.639,0,1,0-.052-1.277,33.487,33.487,0,0,0-3.546.337h-.016c-.023,0-.045.006-.067.011q-1.03.156-2.059.375V8.02a.638.638,0,0,0-.3-.543,1.873,1.873,0,0,1-1.049-2.142,2.74,2.74,0,0,1,2.708-1.767h2.094a.639.639,0,0,0,.569-.348,3.7,3.7,0,0,1,3.632-1.925,2.594,2.594,0,0,1,2.382,1.812.639.639,0,0,0,.614.461h2.251A2.645,2.645,0,0,1,31.385,5.3a1.932,1.932,0,0,1-1.072,2.181.638.638,0,0,0-.3.543v3.83q-1.033-.217-2.071-.371a.653.653,0,0,0-.081-.015l-.026,0c-1.077-.158-2.153-.266-3.222-.321a.639.639,0,1,0-.066,1.277c.855.044,1.716.125,2.579.238a3.547,3.547,0,0,0,1.524,2.909,4.88,4.88,0,0,0,1.363.674v.617a6.233,6.233,0,0,1-2.417,4.665,8.515,8.515,0,0,1-4.732,2.056c-.037,0-.076,0-.116,0a7.485,7.485,0,0,1-3.7-1.463.678.678,0,0,0-.065-.045,10.008,10.008,0,0,1-1.127-.919,5.723,5.723,0,0,1-2.015-3.965Zm6.912,7.67c.063,0,.126,0,.186-.005a9.115,9.115,0,0,0,4.03-1.318,3.684,3.684,0,0,0,.714.791c-1.043,1.209-3.255,1.69-5.162,1.617a6.069,6.069,0,0,1-4.376-1.62,3.71,3.71,0,0,0,.718-.8,8.074,8.074,0,0,0,3.889,1.337Zm-6.624.184a4,4,0,0,0,.527-.053v2.833H15.012V25.136q.528-.065,1.111-.094Zm-2.389.326v2.454H10.277A4.922,4.922,0,0,1,13.734,25.368ZM2.161,30.87a.885.885,0,0,1,0-1.77H3.209a3.153,3.153,0,0,0,.045,1.284h0c.036.164.078.325.121.484Zm7.118,4.984A7.955,7.955,0,0,1,4.5,30.109a1.341,1.341,0,0,1,.035-.953c.014-.017.045-.055.184-.055H20.3c.141,0,.172.039.185.055a1.344,1.344,0,0,1,.035.953A8.16,8.16,0,0,1,15.8,35.854ZM21.1,36.911a1.891,1.891,0,0,0-1.7-1.057H18.3a9.459,9.459,0,0,0,2.888-3.706h1.668a2.166,2.166,0,0,0,2.119-1.726H31.49c.427,0,.537.582.548.651l1.008,5.838Zm20.4-2.488v2.5a2.035,2.035,0,0,1-2.032,2.034H38.3a.866.866,0,0,1-.863-.867V33.254a.863.863,0,0,1,.306-.659l.017-.014a.857.857,0,0,1,.54-.192h1.169A2.035,2.035,0,0,1,41.5,34.424ZM36.913,19.677V14.111a1.2,1.2,0,0,1,1.2-1.2h2.714a1.2,1.2,0,0,1,1.2,1.2v5.566a1.2,1.2,0,0,1-1.2,1.2H38.115A1.2,1.2,0,0,1,36.913,19.677Zm0,0" transform="translate(0 0.001)" fill="#fff"/>
</svg>
