<svg id="_002-delivery-man" data-name="002-delivery-man" xmlns="http://www.w3.org/2000/svg" width="43.309" height="40.94" viewBox="0 0 43.309 40.94">
  <path id="Path_1160" data-name="Path 1160" d="M2.3,26.178H9.643a2.3,2.3,0,0,1,2.3,2.3v8.453h2.747a6.31,6.31,0,0,1-.172-1.971h0A18.438,18.438,0,0,1,16.252,26.9a8.653,8.653,0,0,1,2.688-3.241,5.883,5.883,0,0,1-1.574-4.166,5.383,5.383,0,1,1,10.764,0,.634.634,0,0,1-.634.634h-.431a4.467,4.467,0,0,1,.061.731,4.4,4.4,0,0,1-3.539,4.315,10.692,10.692,0,0,1,.316,2.76l1.582,1.361,3.85.311,4.441-1.468a1.345,1.345,0,0,1,1.269,0,1.127,1.127,0,0,1,.394.947v3.3a.634.634,0,0,1-.634.634h-.755l1.158,4a.634.634,0,0,1-1.219.353l-1.261-4.356h-1.8c2.243,6.841.963,11.407-1,16.028h1.14l4.75-5.311-1-3.47a.634.634,0,0,1,1.219-.353l.961,3.319a6.381,6.381,0,0,1,6.306,4.946.634.634,0,0,1-.476.76l-.9.207A4.854,4.854,0,0,1,32.535,51.3l-.711.164a.828.828,0,0,1-.613-.034.728.728,0,0,1-.357-.487,6.313,6.313,0,0,1-.1-.632H17.483a5.406,5.406,0,0,1-10.7,0h-.6a.869.869,0,0,1-.659-.239.813.813,0,0,1-.224-.617,7.192,7.192,0,0,1,.26-1.718,9.9,9.9,0,0,1,.7-6.4,1.67,1.67,0,0,1-.758-1.4V38.2H2.3A2.3,2.3,0,0,1,0,35.9V28.478a2.3,2.3,0,0,1,2.3-2.3Zm32.883,26.47a3.558,3.558,0,0,0,2.706.456h0a3.6,3.6,0,0,0,2.779-3.672l-6.881,1.584A3.566,3.566,0,0,0,35.181,52.649Zm-3.174-2.526,9.868-2.271A5.109,5.109,0,0,0,36.824,44.5L31.99,49.91Q32,50.017,32.007,50.122ZM22.424,39.067a5.648,5.648,0,0,1,.184,1.913v2.394h2.323V40.09c0-3.713-2.027-4.375-2.936-4.484h-6.22a2.689,2.689,0,0,0,.576,1.822,2.946,2.946,0,0,0,2.2.66l2.277,0A1.529,1.529,0,0,1,22.424,39.067Zm.184,5.576v1.515h4.524a1.808,1.808,0,0,0-.437-1.085,1.565,1.565,0,0,0-1.129-.43ZM15.8,34.337h5.769a23.688,23.688,0,0,0,.608-2.348l-1.754-1.139a2.618,2.618,0,0,1-1.367-2.411,2.243,2.243,0,0,1,1.4-1.836,2.29,2.29,0,0,1,2.129.235,7.49,7.49,0,0,0-.306-1.608,4.472,4.472,0,0,1-.8-.158A5.256,5.256,0,0,1,20,24.485c-1.222.73-3.909,3.1-4.194,9.852ZM26.815,18.855a4.107,4.107,0,0,0-8.18.634,4.308,4.308,0,0,0,2.371,4.089V20.24a1.262,1.262,0,0,1,1.275-1.383l.058,0Zm-.958,2a3.159,3.159,0,0,0-.085-.731h-3.4c-.039,0-.068.009-.088.013a.754.754,0,0,0-.006.1v3.711a3.137,3.137,0,0,0,.455.034h0A3.131,3.131,0,0,0,25.857,20.854Zm.822,9.805-1.5-.122a.635.635,0,0,1-.363-.151L22.1,28.054h0a1.26,1.26,0,0,0-.815-.342.977.977,0,0,0-.964.851,1.4,1.4,0,0,0,.795,1.223l3.022,1.961h2.539V30.66Zm2.681.217-1.412-.114v.986h1.641c.213,0,.265-.177.271-.325A.5.5,0,0,0,29.361,30.877Zm1.5-.438a1.833,1.833,0,0,1,.234,1.3s0,0,0,.005H34.17V29.34l-3.31,1.094,0,0Zm-1.276,2.578H23.952a.634.634,0,0,1-.345-.1l-.287-.186c-.138.611-.3,1.2-.467,1.766,1.294.382,3.348,1.616,3.348,5.6v3.348a2.648,2.648,0,0,1,1.412.758,3.094,3.094,0,0,1,.793,1.961h1.28a18.657,18.657,0,0,0-.1-13.141ZM28.54,49.043c.234-.539.46-1.076.673-1.616H22.626c-.854,0-1.287-.389-1.287-1.155V41.615H16.332a.634.634,0,0,1,0-1.269h5a2.872,2.872,0,0,0-.1-.829c-.032-.085-.06-.158-.408-.158l-2.278,0a4.093,4.093,0,0,1-3.12-1.055c-.031-.033-.061-.067-.09-.1H6.771v1.744a.407.407,0,0,0,.4.4h6.316a.634.634,0,0,1,0,1.269H7.546a7.49,7.49,0,0,0-.926,3.919,6.885,6.885,0,0,1,10.486-.819,6.989,6.989,0,0,1,1.994,4.33ZM12.134,53.671a4.18,4.18,0,0,0,4.061-3.358H8.073a4.181,4.181,0,0,0,4.061,3.358ZM7.353,49.045H17.826a5.691,5.691,0,0,0-5.613-5.107,5.629,5.629,0,0,0-5.4,4.034l-.007.022A5.856,5.856,0,0,0,6.6,49.045ZM1.269,35.9A1.031,1.031,0,0,0,2.3,36.931h8.374V33.655h-9.4Zm0-3.514h9.4V31.037h-9.4Zm0-2.618h9.4v-1.29a1.031,1.031,0,0,0-1.03-1.031H2.3a1.032,1.032,0,0,0-1.03,1.031Z" transform="translate(0 -14)" fill="#fff"/>
</svg>
