<svg xmlns="http://www.w3.org/2000/svg" width="40.602" height="36.542" viewBox="0 0 40.602 36.542">
  <path id="_003-pizza-box" data-name="003-pizza-box" d="M55.925,58.948H50.571l1.24-14.887h.731a.677.677,0,0,0,.677-.677V42.03A2.032,2.032,0,0,0,51.188,40H40.361a2.032,2.032,0,0,0-2.03,2.03v1.353a.677.677,0,0,0,.677.677h.731l.338,4.06h-11.9a.677.677,0,0,0-.656.513l-1.353,5.414a.675.675,0,0,0,0,.328l1.143,4.573H22.09a.677.677,0,0,0-.677.677v6.767H16.677a.677.677,0,0,0-.677.677v8.8a.677.677,0,0,0,.677.677H22.09a.677.677,0,0,0,.677-.677v-.677H36.895a3.668,3.668,0,0,0,1.751-.446l6.625-3.614H55.925a.677.677,0,0,0,.677-.677V59.624A.677.677,0,0,0,55.925,58.948Zm-.677,5.414H38.221a2.974,2.974,0,0,0-.24-1.353h4.411a.677.677,0,0,0,.656-.513L43.6,60.3H55.249ZM37.506,61.654,37.168,60.3H42.2l-.338,1.353ZM37.352,66.3a2.984,2.984,0,0,0,.453-.583h4.4l-.338,1.353H37.506l-.185-.74ZM39.684,42.03a.677.677,0,0,1,.677-.677H51.188a.677.677,0,0,1,.677.677v.677H39.684Zm10.768,2.03-.113,1.353H41.209L41.1,44.06Zm-9.131,2.707h8.905L49.212,58.948H43.935l1.143-4.573a.675.675,0,0,0,0-.328l-1.353-5.414a.677.677,0,0,0-.656-.513H41.435ZM28.709,49.474H42.54l1.015,4.06H27.694Zm8.079,5.414-.338,1.353H34.8l-.338-1.353Zm-9.094,0h5.372l.549,2.194a.677.677,0,0,0,.656.513h2.707a.677.677,0,0,0,.656-.513l.549-2.194h5.372l-1.015,4.06H28.709ZM35.773,60.3l.255,1.019a2.982,2.982,0,0,0-2.612.518l-3.244,2.523h-7.4V60.3ZM22.767,67.068V65.715H25.66a3.657,3.657,0,0,0-1.53,2.707H22.767Zm-1.353,8.12h-4.06V67.745h4.06ZM38,73.554a2.309,2.309,0,0,1-1.1.281H22.767v-4.06h1.626a1.082,1.082,0,0,0,1.08-1.08,2.306,2.306,0,0,1,2.3-2.3H29.44a.955.955,0,0,0,.583-.2l4.223-3.285A1.626,1.626,0,0,1,36.4,65.34l-4.167,4.167a.95.95,0,0,0,.671,1.621h9.545Zm-4.123-3.779,2.331-2.331.116.465a.677.677,0,0,0,.656.513h5.414a.677.677,0,0,0,.656-.513l.549-2.194H55.249v4.06Z" transform="translate(-16 -40)" fill="#fff"/>
</svg>
