<svg id="Group_8189" data-name="Group 8189" xmlns="http://www.w3.org/2000/svg" xmlns:xlink="http://www.w3.org/1999/xlink" width="79.265" height="81.424" viewBox="0 0 79.265 81.424">
  <defs>
    <filter id="Ellipse_1" x="0" y="0" width="79.265" height="81.424" filterUnits="userSpaceOnUse">
      <feOffset input="SourceAlpha"/>
      <feGaussianBlur stdDeviation="5" result="blur"/>
      <feFlood flood-color="#4d6dae" flood-opacity="0.122"/>
      <feComposite operator="in" in2="blur"/>
      <feComposite in="SourceGraphic"/>
    </filter>
  </defs>
  <g transform="matrix(1, 0, 0, 1, 0, 0)" filter="url(#Ellipse_1)">
    <path id="Ellipse_1-2" data-name="Ellipse 1" d="M39.836,15.212a23.844,23.844,0,0,1,9.557,2.079,24.661,24.661,0,0,1,7.759,5.494,25.621,25.621,0,0,1,5.208,8.076,26.418,26.418,0,0,1,0,19.7,25.622,25.622,0,0,1-5.208,8.076,24.661,24.661,0,0,1-7.759,5.494,23.94,23.94,0,0,1-19.175.151,24.627,24.627,0,0,1-7.9-5.435,25.6,25.6,0,0,1-5.35-8.135,26.416,26.416,0,0,1,0-20,25.6,25.6,0,0,1,5.35-8.135,24.627,24.627,0,0,1,7.9-5.435A23.828,23.828,0,0,1,39.836,15.212Z" fill="#9c3dfd"/>
  </g>
  <g id="shopping-cart" transform="translate(28.525 30.747)">
    <path id="Path_1653" data-name="Path 1653" d="M21.416,6.554a1.517,1.517,0,0,0-.237-.246,1.464,1.464,0,0,0-.279-.182,1.448,1.448,0,0,0-.647-.152l-4.127-.006L13.883.64A.654.654,0,0,0,13.74.427a.631.631,0,0,0-.2-.135A.608.608,0,0,0,13.054.3a.626.626,0,0,0-.2.148.654.654,0,0,0-.13.211.672.672,0,0,0,.009.5l2.025,4.808-7.506-.01L9.28,1.149a.672.672,0,0,0,.009-.5.661.661,0,0,0-.13-.212.633.633,0,0,0-.205-.15A.61.61,0,0,0,8.47.276a.628.628,0,0,0-.2.134.649.649,0,0,0-.144.212L5.867,5.955,1.7,5.949a1.484,1.484,0,0,0-.339.039,1.465,1.465,0,0,0-.316.113,1.48,1.48,0,0,0-.283.183,1.539,1.539,0,0,0-.525.856A1.547,1.547,0,0,0,.2,7.474a1.568,1.568,0,0,0,.037.34L2.466,17.858a1.553,1.553,0,0,0,.195.481,1.5,1.5,0,0,0,.33.376,1.472,1.472,0,0,0,.936.33L18.051,19a1.46,1.46,0,0,0,.927-.333,1.5,1.5,0,0,0,.326-.375,1.558,1.558,0,0,0,.193-.48l2.2-9.984a1.567,1.567,0,0,0,.037-.338,1.538,1.538,0,0,0-.317-.937ZM18.051,17.7l-14.124.037a.236.236,0,0,1-.077-.013.234.234,0,0,1-.067-.036.223.223,0,0,1-.051-.055.21.21,0,0,1-.029-.069L1.475,7.522a.214.214,0,0,1-.005-.055.2.2,0,0,1,.008-.048.207.207,0,0,1,.016-.04.227.227,0,0,1,.02-.031A.233.233,0,0,1,1.54,7.32a.229.229,0,0,1,.039-.029.222.222,0,0,1,.053-.023A.244.244,0,0,1,1.7,7.259l3.614,0-.166.392a.672.672,0,0,0-.009.5.659.659,0,0,0,.13.212.633.633,0,0,0,.268.173.611.611,0,0,0,.127.027.611.611,0,0,0,.243-.023.627.627,0,0,0,.164-.077.636.636,0,0,0,.137-.123.657.657,0,0,0,.1-.165L6.7,7.264l8.608.008.385.913a.656.656,0,0,0,.1.165.634.634,0,0,0,.137.123.622.622,0,0,0,.163.077.608.608,0,0,0,.178.027.6.6,0,0,0,.126-.013.608.608,0,0,0,.063-.017.627.627,0,0,0,.266-.173.656.656,0,0,0,.129-.211.672.672,0,0,0-.009-.5l-.165-.391,3.578,0a.24.24,0,0,1,.067.009.219.219,0,0,1,.052.023.226.226,0,0,1,.038.029.231.231,0,0,1,.025.028.227.227,0,0,1,.02.031.207.207,0,0,1,.016.039.2.2,0,0,1,.008.047.213.213,0,0,1-.005.055l-2.2,9.987a.211.211,0,0,1-.029.069.224.224,0,0,1-.05.055.233.233,0,0,1-.143.049Z" fill="#fff" stroke="#fff" stroke-width="0.4"/>
  </g>
</svg>
