<svg xmlns="http://www.w3.org/2000/svg" xmlns:xlink="http://www.w3.org/1999/xlink" width="79.265" height="81.424" viewBox="0 0 79.265 81.424">
  <defs>
    <filter id="Ellipse_1" x="0" y="0" width="79.265" height="81.424" filterUnits="userSpaceOnUse">
      <feOffset input="SourceAlpha"/>
      <feGaussianBlur stdDeviation="5" result="blur"/>
      <feFlood flood-color="#4d6dae" flood-opacity="0.122"/>
      <feComposite operator="in" in2="blur"/>
      <feComposite in="SourceGraphic"/>
    </filter>
  </defs>
  <g id="Group_9046" data-name="Group 9046" transform="translate(-727.735 -1426)">
    <g transform="matrix(1, 0, 0, 1, 727.73, 1426)" filter="url(#Ellipse_1)">
      <path id="Ellipse_1-2" data-name="Ellipse 1" d="M39.836,15.212a23.844,23.844,0,0,1,9.557,2.079,24.661,24.661,0,0,1,7.759,5.494,25.621,25.621,0,0,1,5.208,8.076,26.418,26.418,0,0,1,0,19.7,25.622,25.622,0,0,1-5.208,8.076,24.661,24.661,0,0,1-7.759,5.494,23.94,23.94,0,0,1-19.175.151,24.627,24.627,0,0,1-7.9-5.435,25.6,25.6,0,0,1-5.35-8.135,26.416,26.416,0,0,1,0-20,25.6,25.6,0,0,1,5.35-8.135,24.627,24.627,0,0,1,7.9-5.435A23.828,23.828,0,0,1,39.836,15.212Z" fill="#9c3dfd"/>
    </g>
    <path id="Icon_awesome-heart" data-name="Icon awesome-heart" d="M23.3,3.791a6.892,6.892,0,0,0-9.4.685L12.9,5.5l-.993-1.023a6.891,6.891,0,0,0-9.4-.685,7.236,7.236,0,0,0-.5,10.477l9.752,10.069a1.58,1.58,0,0,0,2.283,0l9.752-10.069A7.232,7.232,0,0,0,23.3,3.791Z" transform="translate(754.467 1453.176)" fill="none" stroke="#fff" stroke-width="2"/>
  </g>
</svg>
